PathFileType	4	(X/Y/Z)	D:\TRACE\spot_10-12-23\spot_arm_motion_3_3-v60.trc
DataRate	CameraRate	NumFrames	NumMarkers	Units	OrigDataRate	OrigDataStartFrame	OrigNumFrames
100.00	100.00	      14	9	mm	100.00	876	      7000
Frame#	Time	front left toe			Front right toe			aft left toe			aft right toe			Arm			FL body			FR body			AL Body			AR Body			
		X1	Y1	Z1	X2	Y2	Z2	X3	Y3	Z3	X4	Y4	Z4	X5	Y5	Z5	X6	Y6	Z6	X7	Y7	Z7	X8	Y8	Z8	X9	Y9	Z9	

876	8.750	-199.29279	20.59918	-13.59049	294.28336	22.53778	8.20909	-210.17294	46.26120	598.47949	272.63000	41.35620	614.73004	23.80411	773.89178	-735.81934	-23.56089	544.27319	-54.33474	129.27077	550.26624	-52.11286	-43.17999	584.30133	828.59930	108.86443	584.61841	835.01447	
877	8.760	-199.25191	20.58421	-13.60837	294.31378	22.56212	8.20944	-210.10765	46.43684	598.41150	272.66217	41.54994	614.61536	23.81074	773.85419	-735.82794	-23.59621	544.28638	-54.36882	129.27277	550.26416	-52.14209	-43.16014	584.46735	828.57825	107.67869	584.14764	833.92981	
878	8.770	-199.22719	20.55034	-13.63687	294.37277	22.55105	8.19058	-210.08350	46.58922	598.39661	272.74365	41.71970	614.61584	23.70960	773.82855	-735.92438	-23.56374	544.34137	-54.43195	129.50580	550.05505	-52.08503	-43.09603	584.60229	828.61676	107.71108	584.33820	833.93732	
879	8.780	-199.22104	20.56595	-13.67206	294.37671	22.58591	8.18225	-210.01631	46.68528	598.36743	272.80585	41.87291	614.53979	23.86099	773.77167	-735.97620	-23.57048	544.33215	-54.44809	129.26004	550.31219	-52.26485	-43.00788	584.73779	828.55225	107.37424	584.33612	833.27594	
880	8.790	-199.14851	20.54886	-13.70524	294.48242	22.57551	8.14531	-209.92546	46.75601	598.32410	272.83582	42.03052	614.42847	23.65155	773.65570	-736.02313	-23.58341	544.30511	-54.54288	129.34999	550.34851	-52.28638	-43.23706	584.98004	828.40924	107.43279	584.43634	833.21838	
881	8.800	-199.06305	20.51842	-13.69147	294.59512	22.59850	8.07573	-209.82977	46.89957	598.30780	272.80920	42.15731	614.34082	23.52780	773.59381	-736.09686	-23.48796	544.28534	-54.57493	129.34218	550.34772	-52.34267	-43.06845	585.05591	828.40491	107.51162	584.66791	833.11017	
882	8.810	-199.28593	20.75107	-13.83935	294.63794	22.61450	8.02455	-209.75607	47.09921	598.29236	272.86679	42.27034	614.28387	23.47743	773.55042	-736.20056	-23.49382	544.26294	-54.64189	129.40398	550.30847	-52.35364	-42.94787	585.14453	828.36981	107.59433	584.83917	833.02551	
883	8.820	-199.17841	20.72713	-13.88881	294.77347	22.56816	7.95825	-209.64331	47.40394	598.24084	272.87994	42.33590	614.21008	23.38651	773.50128	-736.33472	-23.45783	544.24249	-54.74848	129.42545	550.27698	-52.43930	-42.74082	585.10345	828.27948	107.63495	584.96765	832.98071	
884	8.830	-199.02026	20.70432	-13.88109	294.85370	22.55076	7.97048	-209.49960	47.56336	598.20245	273.03271	42.49744	614.20044	23.47918	773.35162	-736.41180	-23.38502	544.21771	-54.88791	129.44713	550.28949	-52.47755	-42.72926	585.21088	828.18683	107.66760	585.08386	832.95355	
885	8.840	-198.88655	20.65511	-13.88889	294.91556	22.59081	7.92240	-209.47856	47.69812	598.15381	273.10507	42.64601	614.19556	23.44205	773.22266	-736.57471	-23.38424	544.20758	-54.97390	129.49269	550.26135	-52.48842	-42.63192	585.30780	828.06293	107.67557	585.17542	832.89606	
886	8.850	-198.82712	20.69362	-13.98733	295.07370	22.58662	7.84490	-209.40886	47.83462	598.06195	273.28317	42.74628	614.09546	23.30646	773.18311	-736.58270	-23.34041	544.15582	-55.07378	129.51247	550.18109	-52.58892	-42.56012	585.46899	827.98981	107.77835	585.30450	832.84180	
887	8.860	-198.75938	20.70546	-14.05503	295.17880	22.56983	7.84971	-209.42090	48.00209	598.03516	273.30417	42.86170	614.17688	23.42930	773.04321	-736.69983	-23.26676	544.10693	-55.08265	129.53687	550.16455	-52.63179	-42.41230	585.68420	827.93921	107.90189	585.46613	832.79968	
888	8.870	-198.68689	20.72105	-14.08601	295.22369	22.60954	7.80513	-209.37640	48.12062	598.00555	273.36047	42.95073	614.15887	23.31831	772.87933	-736.87000	-23.22418	544.10095	-55.20275	129.57254	550.11200	-52.72893	-42.35082	585.92712	827.79236	108.41341	585.67102	833.33746	
889	8.880	-198.59195	20.70007	-14.13325	295.31903	22.54261	7.80374	-209.29984	48.18051	597.94788	273.36511	42.99485	614.12122	23.41777	772.77985	-736.98260	-23.19699	544.15735	-55.25285	129.63634	550.09973	-52.77642	-42.34491	586.05615	827.71484	108.54249	585.88647	833.28845	
